<svg width="60" height="60" viewBox="0 0 60 60" fill="none" xmlns="http://www.w3.org/2000/svg">
<g clip-path="url(#clip0_117_543)">
<path d="M30.0595 0L29.9229 0C13.3969 0 0 13.4009 0 29.9317L0 30.0683C0 46.5991 13.3969 60 29.9229 60H30.0595C46.5854 60 59.9823 46.5991 59.9823 30.0683V29.9317C59.9823 13.4009 46.5854 0 30.0595 0Z" fill="url(#paint0_linear_117_543)"/>
<path d="M39.2723 12.2068L20.7121 12.2068C15.5845 12.2068 11.4131 16.3795 11.4131 21.5086V38.4935C11.4131 43.6226 15.5845 47.7953 20.7121 47.7953H39.2723C44.3999 47.7953 48.5713 43.6226 48.5713 38.4935V21.5086C48.5713 16.3795 44.3999 12.2068 39.2723 12.2068ZM14.6935 21.5086C14.6935 18.1894 17.3939 15.4882 20.7121 15.4882L39.2723 15.4882C42.5905 15.4882 45.2909 18.1894 45.2909 21.5086V38.4935C45.2909 41.8127 42.5905 44.5139 39.2723 44.5139H20.7121C17.3939 44.5139 14.6935 41.8127 14.6935 38.4935L14.6935 21.5086Z" fill="#FFEBFC"/>
<path d="M29.9924 38.6512C34.7607 38.6512 38.6421 34.7707 38.6421 29.999C38.6421 25.2272 34.7628 21.3468 29.9924 21.3468C25.2221 21.3468 21.3428 25.2272 21.3428 29.999C21.3428 34.7707 25.2221 38.6512 29.9924 38.6512ZM29.9924 24.6302C32.9534 24.6302 35.3617 27.0392 35.3617 30.0011C35.3617 32.9629 32.9534 35.3719 29.9924 35.3719C27.0315 35.3719 24.6232 32.9629 24.6232 30.0011C24.6232 27.0392 27.0315 24.6302 29.9924 24.6302Z" fill="#FFEBFC"/>
<path d="M39.4428 22.7446C40.7268 22.7446 41.7734 21.6999 41.7734 20.4134C41.7734 19.1269 40.7289 18.0822 39.4428 18.0822C38.1567 18.0822 37.1123 19.1269 37.1123 20.4134C37.1123 21.6999 38.1567 22.7446 39.4428 22.7446Z" fill="#FFEBFC"/>
</g>
<defs>
<linearGradient id="paint0_linear_117_543" x1="0" y1="30" x2="59.9823" y2="30" gradientUnits="userSpaceOnUse">
<stop stop-color="#FF5B9D"/>
<stop offset="1" stop-color="#C2035C"/>
</linearGradient>
<clipPath id="clip0_117_543">
<rect width="59.9823" height="60" fill="white"/>
</clipPath>
</defs>
</svg>
