<svg width="60" height="60" viewBox="0 0 60 60" fill="none" xmlns="http://www.w3.org/2000/svg">
<g clip-path="url(#clip0_2017_36)">
<path d="M30.0595 0L29.9229 0C13.3969 0 0 13.4009 0 29.9317L0 30.0683C0 46.5991 13.3969 60 29.9229 60H30.0595C46.5854 60 59.9823 46.5991 59.9823 30.0683V29.9317C59.9823 13.4009 46.5854 0 30.0595 0Z" fill="url(#paint0_linear_2017_36)"/>
<path d="M39.2723 12.2068L20.7121 12.2068C15.5845 12.2068 11.4131 16.3795 11.4131 21.5086V38.4935C11.4131 43.6226 15.5845 47.7953 20.7121 47.7953H39.2723C44.3999 47.7953 48.5713 43.6226 48.5713 38.4935V21.5086C48.5713 16.3795 44.3999 12.2068 39.2723 12.2068ZM14.6935 21.5086C14.6935 18.1894 17.3939 15.4882 20.7121 15.4882L39.2723 15.4882C42.5905 15.4882 45.2909 18.1894 45.2909 21.5086V38.4935C45.2909 41.8127 42.5905 44.5139 39.2723 44.5139H20.7121C17.3939 44.5139 14.6935 41.8127 14.6935 38.4935L14.6935 21.5086Z" fill="#FFEBFC"/>
<path d="M29.9922 38.6512C34.7604 38.6512 38.6419 34.7707 38.6419 29.9989C38.6419 25.2272 34.7625 21.3467 29.9922 21.3467C25.2219 21.3467 21.3425 25.2272 21.3425 29.9989C21.3425 34.7707 25.2219 38.6512 29.9922 38.6512ZM29.9922 24.6302C32.9532 24.6302 35.3615 27.0392 35.3615 30.001C35.3615 32.9629 32.9532 35.3719 29.9922 35.3719C27.0312 35.3719 24.6229 32.9629 24.6229 30.001C24.6229 27.0392 27.0312 24.6302 29.9922 24.6302Z" fill="#FFEBFC"/>
<path d="M39.4428 22.7447C40.7268 22.7447 41.7734 21.6999 41.7734 20.4134C41.7734 19.127 40.7289 18.0822 39.4428 18.0822C38.1567 18.0822 37.1123 19.127 37.1123 20.4134C37.1123 21.6999 38.1567 22.7447 39.4428 22.7447Z" fill="#FFEBFC"/>
</g>
<defs>
<linearGradient id="paint0_linear_2017_36" x1="0" y1="30" x2="59.9823" y2="30" gradientUnits="userSpaceOnUse">
<stop stop-color="#D30498"/>
<stop offset="1" stop-color="#FF4680"/>
</linearGradient>
<clipPath id="clip0_2017_36">
<rect width="59.9823" height="60" fill="white"/>
</clipPath>
</defs>
</svg>
