<svg width="60" height="60" viewBox="0 0 60 60" fill="none" xmlns="http://www.w3.org/2000/svg">
<g clip-path="url(#clip0_117_540)">
<path d="M30.066 60H29.934C13.4285 60 0 46.5714 0 30.066V29.934C0 13.4286 13.4285 0 29.934 0H30.066C46.5715 0 60 13.4286 60 29.934V30.066C60 46.5714 46.5715 60 30.066 60ZM29.934 2.03094C14.5476 2.03094 2.03094 14.5476 2.03094 29.934V30.066C2.03094 45.4524 14.5476 57.9691 29.934 57.9691H30.066C45.4524 57.9691 57.9691 45.4524 57.9691 30.066V29.934C57.9691 14.5476 45.4524 2.03094 30.066 2.03094H29.934Z" fill="url(#paint0_linear_117_540)"/>
<path d="M29.934 2.03094C14.5476 2.03094 2.03094 14.5476 2.03094 29.934V30.066C2.03094 45.4524 14.5476 57.9691 29.934 57.9691H30.066C45.4524 57.9691 57.9691 45.4524 57.9691 30.066V29.934C57.9691 14.5476 45.4524 2.03094 30.066 2.03094H29.934Z" fill="url(#paint1_linear_117_540)"/>
<path d="M11.9948 29.012C12.076 28.9714 12.1573 28.9328 12.2365 28.8962C13.6135 28.2585 15.0088 27.6614 16.402 27.0643C16.4771 27.0643 16.603 26.977 16.6741 26.9485C16.7817 26.9018 16.8894 26.8572 16.997 26.8105C17.2042 26.7211 17.4114 26.6337 17.6165 26.5444C18.0308 26.3677 18.443 26.191 18.8574 26.0143C19.6839 25.6609 20.5105 25.3076 21.3371 24.9521C22.9903 24.2454 24.6456 23.5366 26.2987 22.8298C27.9519 22.1231 29.6071 21.4142 31.2603 20.7075C32.9135 20.0007 34.5687 19.2919 36.2219 18.5852C37.8751 17.8784 39.5303 17.1696 41.1835 16.4628C41.5511 16.3044 41.9491 16.0688 42.3431 15.9998C42.6742 15.9409 42.9971 15.8271 43.3302 15.7642C43.9618 15.6443 44.6584 15.5956 45.2636 15.8576C45.4728 15.949 45.6657 16.0769 45.8262 16.2374C46.5939 16.9969 46.4862 18.2439 46.3238 19.3122C45.1925 26.7576 44.0613 34.2051 42.928 41.6505C42.7737 42.6721 42.5625 43.7931 41.7562 44.439C41.0738 44.9853 40.103 45.0463 39.2602 44.8147C38.4173 44.5812 37.674 44.0917 36.9449 43.6104C33.9208 41.6079 30.8948 39.6054 27.8707 37.6029C27.1517 37.1276 26.3516 36.5061 26.3597 35.643C26.3637 35.1231 26.6744 34.66 26.9913 34.2477C29.6193 30.8195 33.4111 28.4636 36.232 25.1938C36.6301 24.7328 36.9429 23.9001 36.3966 23.6341C36.0716 23.4756 35.6979 23.6909 35.4014 23.8961C31.6726 26.4855 27.9458 29.077 24.217 31.6664C23.0005 32.5113 21.7251 33.3805 20.2587 33.5877C18.9467 33.7745 17.6266 33.409 16.3573 33.0353C15.2931 32.7225 14.2309 32.4016 13.1728 32.0706C12.6102 31.8959 12.0293 31.707 11.5947 31.311C11.1601 30.915 10.9103 30.2488 11.1723 29.7208C11.3368 29.3897 11.6557 29.1805 11.9908 29.0099L11.9948 29.012Z" fill="#FFEBFC"/>
</g>
<defs>
<linearGradient id="paint0_linear_117_540" x1="0" y1="30" x2="60" y2="30" gradientUnits="userSpaceOnUse">
<stop stop-color="#FF5B9D"/>
<stop offset="1" stop-color="#C2035C"/>
</linearGradient>
<linearGradient id="paint1_linear_117_540" x1="0" y1="30" x2="60" y2="30" gradientUnits="userSpaceOnUse">
<stop stop-color="#FF5B9D"/>
<stop offset="1" stop-color="#C2035C"/>
</linearGradient>
<clipPath id="clip0_117_540">
<rect width="60" height="60" fill="white"/>
</clipPath>
</defs>
</svg>
