<svg width="60" height="60" viewBox="0 0 60 60" fill="none" xmlns="http://www.w3.org/2000/svg">
<g clip-path="url(#clip0_2017_33)">
<path d="M30.066 60H29.934C13.4285 60 0 46.5714 0 30.066V29.934C0 13.4286 13.4285 0 29.934 0H30.066C46.5715 0 60 13.4286 60 29.934V30.066C60 46.5714 46.5715 60 30.066 60ZM29.934 2.03094C14.5476 2.03094 2.03094 14.5476 2.03094 29.934V30.066C2.03094 45.4524 14.5476 57.9691 29.934 57.9691H30.066C45.4524 57.9691 57.9691 45.4524 57.9691 30.066V29.934C57.9691 14.5476 45.4524 2.03094 30.066 2.03094H29.934Z" fill="url(#paint0_linear_2017_33)"/>
<path d="M29.934 2.03094C14.5476 2.03094 2.03094 14.5476 2.03094 29.934V30.066C2.03094 45.4524 14.5476 57.9691 29.934 57.9691H30.066C45.4524 57.9691 57.9691 45.4524 57.9691 30.066V29.934C57.9691 14.5476 45.4524 2.03094 30.066 2.03094H29.934Z" fill="url(#paint1_linear_2017_33)"/>
<path d="M11.9946 29.012C12.0758 28.9713 12.1571 28.9328 12.2363 28.8962C13.6133 28.2585 15.0085 27.6614 16.4017 27.0643C16.4769 27.0643 16.6028 26.9769 16.6739 26.9485C16.7815 26.9018 16.8891 26.8571 16.9968 26.8104C17.2039 26.7211 17.4111 26.6337 17.6162 26.5444C18.0305 26.3677 18.4428 26.191 18.8571 26.0143C19.6837 25.6609 20.5103 25.3075 21.3369 24.9521C22.9901 24.2453 24.6453 23.5366 26.2985 22.8298C27.9517 22.123 29.6069 21.4142 31.2601 20.7074C32.9132 20.0007 34.5684 19.2919 36.2216 18.5851C37.8748 17.8784 39.5301 17.1695 41.1832 16.4628C41.5508 16.3044 41.9489 16.0688 42.3429 15.9997C42.6739 15.9408 42.9968 15.8271 43.3299 15.7641C43.9615 15.6443 44.6582 15.5956 45.2634 15.8576C45.4726 15.949 45.6655 16.0769 45.8259 16.2373C46.5936 16.9969 46.486 18.2439 46.3235 19.3122C45.1923 26.7576 44.0611 34.2051 42.9278 41.6505C42.7734 42.672 42.5622 43.7931 41.7559 44.439C41.0735 44.9853 40.1027 45.0462 39.2599 44.8147C38.4171 44.5811 37.6738 44.0917 36.9447 43.6103C33.9206 41.6078 30.8945 39.6053 27.8704 37.6028C27.1515 37.1276 26.3513 36.5061 26.3594 35.643C26.3635 35.123 26.6742 34.66 26.991 34.2477C29.6191 30.8195 33.4108 28.4636 36.2318 25.1938C36.6299 24.7328 36.9426 23.9001 36.3963 23.634C36.0714 23.4756 35.6976 23.6909 35.4011 23.896C31.6723 26.4855 27.9456 29.0769 24.2168 31.6664C23.0003 32.5112 21.7248 33.3805 20.2585 33.5877C18.9465 33.7745 17.6264 33.4089 16.3571 33.0353C15.2928 32.7225 14.2306 32.4016 13.1725 32.0706C12.6099 31.8959 12.0291 31.707 11.5945 31.311C11.1599 30.9149 10.9101 30.2488 11.1721 29.7207C11.3366 29.3897 11.6554 29.1805 11.9905 29.0099L11.9946 29.012Z" fill="#FFEBFC"/>
</g>
<defs>
<linearGradient id="paint0_linear_2017_33" x1="0" y1="30" x2="60" y2="30" gradientUnits="userSpaceOnUse">
<stop stop-color="#D30498"/>
<stop offset="1" stop-color="#FF4680"/>
</linearGradient>
<linearGradient id="paint1_linear_2017_33" x1="0" y1="30" x2="60" y2="30" gradientUnits="userSpaceOnUse">
<stop stop-color="#D30498"/>
<stop offset="1" stop-color="#FF4680"/>
</linearGradient>
<clipPath id="clip0_2017_33">
<rect width="60" height="60" fill="white"/>
</clipPath>
</defs>
</svg>
